<svg width="1024" height="1024" viewBox="0 0 1024 1024" fill="none" xmlns="http://www.w3.org/2000/svg">
<path fill-rule="evenodd" clip-rule="evenodd" d="M427.158 731.13C427.311 710.174 427.466 688.798 427.606 680.125C473.555 674.835 516.145 658.398 552.615 633.582C532.505 604.766 519.512 570.593 516.206 533.638C494.416 544.115 477.192 558.051 462.271 573.54C450.848 585.4 441.219 598.469 432.463 612.334C430.744 615.058 429.033 617.794 427.347 620.553C427.635 631.196 427.736 642.552 427.709 657.921C427.706 659.239 427.705 660.588 427.703 661.968L427.703 662.053C427.698 667.524 427.692 673.5 427.606 680.125C417.036 681.339 406.193 681.973 395.301 681.973C383.859 681.973 372.117 681.229 361.032 679.892L361.769 745.258H101.639V797.093H922.361V745.258H744.524C744.539 742.732 744.554 740.157 744.57 737.577L744.57 737.541C744.666 721.32 744.763 704.94 744.85 699.548C737.828 700.351 730.687 700.763 723.45 700.763C715.869 700.763 708.393 700.311 701.05 699.432L701.292 745.258H427.054C427.088 740.674 427.123 735.913 427.158 731.13ZM434.723 543.863C456.714 525.409 483.312 511.675 515.659 503.9C520.314 414.848 581.115 340.607 663.186 316.154C627.432 201.899 520.953 118.917 395.301 118.917C240.377 118.917 114.598 245.066 114.598 400.446C114.598 544.19 222.246 662.917 361.032 679.892C361.06 659.619 361.336 645.464 361.571 633.413V633.412V633.411C361.92 615.526 362.179 602.276 361.4 580.543C360.288 541.022 340.61 504.894 310.078 476.653C298.016 465.496 284.725 455.178 269.692 446.365C247.706 433.477 223.692 422.364 196.104 416.535L199.261 384.356C232.534 383.976 263.476 389.406 291.642 399.922C312.589 407.742 331.365 418.909 347.963 431.912C353.551 436.289 358.858 440.905 363.878 445.735C364.867 423.767 367.314 401.51 372.424 378.412C375.537 364.342 379.455 349.979 385.062 335.296C395.884 306.95 411.636 277.541 434.455 245.614L456.466 258.814C445.594 281.263 438.021 302.129 431.931 321.885C424.876 344.772 420.897 365.94 418.552 386.277C414.086 424.999 417.248 460.283 420.462 496.154V496.155V496.155C420.771 499.604 421.08 503.059 421.384 506.523C422.727 521.854 424.05 537.335 424.476 553.179C427.761 549.95 431.175 546.842 434.723 543.863ZM744.863 698.731L744.85 699.548C837.417 688.971 909.402 610.622 909.402 515.67C909.402 413.514 826.08 330.577 723.449 330.577C625.681 330.577 545.434 405.844 538.05 501.289C614.229 493.221 666.357 516.244 691.973 536.495C695.712 539.45 699.27 542.555 702.639 545.795C703.444 535.192 704.905 524.436 707.33 513.399C713.312 486.176 725.051 457.39 747.324 424.877L766.726 436.424C750.456 467.583 743.537 494.328 740.51 519.014C737.829 540.876 738.89 561.071 740.28 581.342C742.335 579.963 744.534 578.702 746.9 577.589C757.156 572.763 769.65 569.988 785.821 570.436L787.964 586.774C778.28 589.687 771.288 593.969 765.031 598.086C758.262 602.539 753.899 607.881 750.466 613.624C747.291 618.937 745.208 624.72 743.803 630.71C743.842 631.162 743.878 631.614 743.911 632.067C744.861 649.355 745.224 658.785 745.172 674.536C745.15 681.107 745.024 688.805 744.863 698.717L744.863 698.731ZM537.918 528.212C543.906 617.108 613.068 688.898 701.05 699.431L700.383 634.106C699.863 608.17 687.445 584.003 667.109 565.636C648.085 548.454 598.785 515.307 537.918 528.212ZM805.732 905.082H218.268V853.247H805.732V905.082Z" fill="#C09946"/>
</svg>
